# xmcd
# 
# Track frame offsets:
#     150
#     13392
#     29480
#     44922
#     59757
#     71857
#     85927
#     97852
#     113562
#     127635
#     143305
#     159402
# 
# Disc length: 2301
# 
# Revision: 3
# Processed by: cddbd v1.5.2PL0 Copyright (c) Steve Scherf et al.
# Submitted via: BonkEnc v1.0rc1
# 
DISCID=9f08fb0c
DTITLE=Various Artist - Deutsche Country-Hits für unterwegs CD1
DYEAR=1991
DGENRE=Country
TTITLE0=Jonny Hill - Ich bin wieder zu Haus
TTITLE1=Linda Feller - Engel lieben meist den Falschen
TTITLE2=Greyhounds - Keine Mätzchen, Schätzchen
TTITLE3=Max Zwo - Harley Davidson
TTITLE4=Greyhounds - Rainer
TTITLE5=Jonny Hill - Ich Danke Dir
TTITLE6=Linda Feller - Es gibt Männer , soviel Männer
TTITLE7=Jonny Hill - Teilen kann ich nicht
TTITLE8=Greyhounds - Locker vom Hocker
TTITLE9=Max Zwo - Im Cowboyhimmel
TTITLE10=Jonny Hill - Sie ist stolz
TTITLE11=Greyhounds - 6 Tage auf dem Diesel
EXTD=
EXTT0=
EXTT1=
EXTT2=
EXTT3=
EXTT4=
EXTT5=
EXTT6=
EXTT7=
EXTT8=
EXTT9=
EXTT10=
EXTT11=
PLAYORDER=
